<?xml version="1.0" encoding="utf-8"?>
<svg
	version="1.1"
	xmlns="http://www.w3.org/2000/svg"
	xmlns:xlink="http://www.w3.org/1999/xlink"
	x="0%" y="0%"
	width="100%" height="100%"
	viewBox="0 0 192.0 192.0"
	enable-background="new 0 0 192.0 192.0"
	xml:space="preserve">
	<path
		fill="#FFFFFF"
		stroke="#000000"
		fill-opacity="0.000"
		stroke-opacity="1.000"
		fill-rule="nonzero"
		stroke-width="12"
		stroke-linejoin="miter"
		stroke-linecap="square"
		d="M98.04,17.36Q88.00,17.00,51.95,28.10C37.90,32.78,34.28,36.00,34.78,61.54L35.89,109.24Q37.45,133.33,64.07,149.91L88.02,166.34Q92.42,169.11,97.39,169.74Q102.36,169.11,106.76,166.34L130.71,149.91Q157.33,133.33,158.90,109.24L160.00,61.54C160.50,36.00,156.88,32.78,142.83,28.10Q106.00,17.00,98.04,17.36z"/>
	<path
		fill="#FFFFFF"
		stroke="#000000"
		fill-opacity="0.000"
		stroke-opacity="1.000"
		fill-rule="nonzero"
		stroke-width="12"
		stroke-linejoin="miter"
		stroke-linecap="round"
		d="M65.65,64.00L126.35,64.00"/>
	<path
		fill="#FFFFFF"
		stroke="#000000"
		fill-opacity="0.000"
		stroke-opacity="1.000"
		fill-rule="nonzero"
		stroke-width="12"
		stroke-linejoin="miter"
		stroke-linecap="round"
		d="M65.39,83.37L106.40,83.37"/>
	<path
		fill="#FFFFFF"
		stroke="#000000"
		fill-opacity="0.000"
		stroke-opacity="1.000"
		fill-rule="nonzero"
		stroke-width="12"
		stroke-linejoin="miter"
		stroke-linecap="round"
		d="M65.54,102.81L76.91,102.81"/>
</svg>