<?xml version="1.0" encoding="utf-8"?>
<svg
	version="1.1"
	xmlns="http://www.w3.org/2000/svg"
	xmlns:xlink="http://www.w3.org/1999/xlink"
	x="0%" y="0%"
	width="100%" height="100%"
	viewBox="0 0 192.0 192.0"
	enable-background="new 0 0 192.0 192.0"
	xml:space="preserve">
	<path
		fill="#FFFFFF"
		stroke="#000000"
		fill-opacity="0.000"
		stroke-opacity="1.000"
		fill-rule="nonzero"
		stroke-width="12"
		stroke-linejoin="miter"
		stroke-linecap="square"
		d="M65.67,48.61L126.33,48.61A47.70 47.70 0 0 1 174.03,96.31L174.03,115.39A47.70 47.70 0 0 1 126.33,163.09L65.67,163.09A47.70 47.70 0 0 1 17.97,115.39L17.97,96.31A47.70 47.70 0 0 1 65.67,48.61z"/>
	<path
		fill="#FFFFFF"
		stroke="#000000"
		fill-opacity="0.000"
		stroke-opacity="1.000"
		fill-rule="nonzero"
		stroke-width="12"
		stroke-linejoin="miter"
		stroke-linecap="square"
		d="M95.38,100.78L105.09,87.83C118.33,66.98,140.65,84.84,126.44,103.02L110.08,124.54C101.30,136.05,87.69,136.79,79.30,123.13L64.83,102.23C53.03,82.37,72.83,69.52,85.74,87.54L95.38,100.78z"/>
	<path
		fill="#FFFFFF"
		stroke="#000000"
		fill-opacity="0.000"
		stroke-opacity="1.000"
		fill-rule="nonzero"
		stroke-width="12"
		stroke-linejoin="miter"
		stroke-linecap="square"
		d="M52.61,50.38L100.69,33.45C120.42,22.53,156.14,28.97,170.88,79.04"/>
</svg>