<?xml version="1.0" encoding="utf-8"?>
<svg
	version="1.1"
	xmlns="http://www.w3.org/2000/svg"
	xmlns:xlink="http://www.w3.org/1999/xlink"
	x="0%" y="0%"
	width="100%" height="100%"
	viewBox="0 0 192.0 192.0"
	enable-background="new 0 0 192.0 192.0"
	xml:space="preserve">
	<path
		fill="#FFFFFF"
		stroke="#000000"
		fill-opacity="0.000"
		stroke-opacity="1.000"
		fill-rule="nonzero"
		stroke-width="12"
		stroke-linejoin="round"
		stroke-linecap="square"
		d="M103.90,63.47L103.90,82.77L96.18,94.35L96.18,105.92L142.49,105.92L142.49,94.35L130.92,82.77L130.92,63.47L146.35,63.47L146.35,48.04L88.47,48.04L88.47,63.47L103.90,63.47z"/>
	<path
		fill="#FFFFFF"
		stroke="#000000"
		fill-opacity="0.000"
		stroke-opacity="1.000"
		fill-rule="nonzero"
		stroke-width="12"
		stroke-linejoin="miter"
		stroke-linecap="round"
		d="M119.34,111.51L119.34,146.65"/>
	<path
		fill="#FFFFFF"
		stroke="#000000"
		fill-opacity="0.000"
		stroke-opacity="1.000"
		fill-rule="nonzero"
		stroke-width="12"
		stroke-linejoin="miter"
		stroke-linecap="round"
		d="M153.65,77.26L171.71,77.26L171.71,163.26L20.29,162.53L20.29,80.20L88.37,80.20"/>
	<path
		fill="#FFFFFF"
		stroke="#000000"
		fill-opacity="0.000"
		stroke-opacity="1.000"
		fill-rule="nonzero"
		stroke-width="12"
		stroke-linejoin="miter"
		stroke-linecap="round"
		d="M21.50,52.35L65.08,52.35"/>
	<path
		fill="#FFFFFF"
		stroke="#000000"
		fill-opacity="0.000"
		stroke-opacity="1.000"
		fill-rule="nonzero"
		stroke-width="12"
		stroke-linejoin="miter"
		stroke-linecap="round"
		d="M47.38,28.74L90.96,28.74"/>
	<path
		fill="#FFFFFF"
		stroke="#000000"
		fill-opacity="0.000"
		stroke-opacity="1.000"
		fill-rule="nonzero"
		stroke-width="12"
		stroke-linejoin="miter"
		stroke-linecap="round"
		d="M44.07,116.95L87.65,116.95"/>
	<path
		fill="#FFFFFF"
		stroke="#000000"
		fill-opacity="0.000"
		stroke-opacity="1.000"
		fill-rule="nonzero"
		stroke-width="12"
		stroke-linejoin="miter"
		stroke-linecap="round"
		d="M44.07,143.41L87.65,143.41"/>
</svg>