<?xml version="1.0" encoding="utf-8"?>
<svg
	version="1.1"
	xmlns="http://www.w3.org/2000/svg"
	xmlns:xlink="http://www.w3.org/1999/xlink"
	x="0%" y="0%"
	width="100%" height="100%"
	viewBox="0 0 192.0 192.0"
	enable-background="new 0 0 192.0 192.0"
	xml:space="preserve">
	<path
		fill="#FFFFFF"
		stroke="#000000"
		fill-opacity="0.000"
		stroke-opacity="1.000"
		fill-rule="nonzero"
		stroke-width="12"
		stroke-linejoin="round"
		stroke-linecap="round"
		d="M69.50,144.23L69.50,22.98L168.01,22.98L168.59,137.52"/>
	<path
		fill="#000000"
		stroke="#000000"
		fill-opacity="0.016"
		stroke-opacity="1.000"
		fill-rule="nonzero"
		stroke-width="12"
		stroke-linejoin="round"
		stroke-linecap="round"
		d="M145.61,114.45C158.34,114.45,168.67,124.78,168.67,137.52C168.67,150.26,158.34,160.59,145.61,160.59C132.87,160.59,122.54,150.26,122.54,137.52C122.54,124.78,132.87,114.45,145.61,114.45z"/>
	<path
		fill="#000000"
		stroke="#000000"
		fill-opacity="0.000"
		stroke-opacity="1.000"
		fill-rule="nonzero"
		stroke-width="12"
		stroke-linejoin="round"
		stroke-linecap="round"
		d="M46.39,122.89C59.13,122.89,69.46,133.22,69.46,145.96C69.46,158.70,59.13,169.02,46.39,169.02C33.66,169.02,23.33,158.70,23.33,145.96C23.33,133.22,33.66,122.89,46.39,122.89z"/>
	<path
		fill="#000000"
		stroke="#000000"
		fill-opacity="1.000"
		stroke-opacity="1.000"
		fill-rule="nonzero"
		stroke-width="12"
		stroke-linejoin="round"
		stroke-linecap="round"
		d="M73.97,34.84L163.41,34.98"/>
</svg>