<?xml version="1.0" encoding="utf-8"?>
<svg
	version="1.1"
	xmlns="http://www.w3.org/2000/svg"
	xmlns:xlink="http://www.w3.org/1999/xlink"
	x="0%" y="0%"
	width="100%" height="100%"
	viewBox="0 0 192.0 192.0"
	enable-background="new 0 0 192.0 192.0"
	xml:space="preserve">
	<path
		fill="#FFFFFF"
		stroke="#000000"
		fill-opacity="0.000"
		stroke-opacity="1.000"
		fill-rule="nonzero"
		stroke-width="12"
		stroke-linejoin="round"
		stroke-linecap="round"
		d="M87.15,38.83L105.83,38.83A6.99 6.99 0 0 1 112.82,45.83L112.82,146.17A6.99 6.99 0 0 1 105.83,153.17L87.15,153.17A6.99 6.99 0 0 1 80.15,146.17L80.15,45.83A6.99 6.99 0 0 1 87.15,38.83z"/>
	<path
		fill="#FFFFFF"
		stroke="#000000"
		fill-opacity="0.000"
		stroke-opacity="1.000"
		fill-rule="nonzero"
		stroke-width="12"
		stroke-linejoin="round"
		stroke-linecap="round"
		d="M143.34,95.51L162.02,95.51A6.99 6.99 0 0 1 169.02,102.51L169.02,145.69A6.99 6.99 0 0 1 162.02,152.68L143.34,152.68A6.99 6.99 0 0 1 136.35,145.69L136.35,102.51A6.99 6.99 0 0 1 143.34,95.51z"/>
	<path
		fill="#FFFFFF"
		stroke="#000000"
		fill-opacity="0.000"
		stroke-opacity="1.000"
		fill-rule="nonzero"
		stroke-width="12"
		stroke-linejoin="round"
		stroke-linecap="round"
		d="M29.98,71.50L48.66,71.50A6.99 6.99 0 0 1 55.65,78.49L55.65,146.17A6.99 6.99 0 0 1 48.66,153.17L29.98,153.17A6.99 6.99 0 0 1 22.98,146.17L22.98,78.49A6.99 6.99 0 0 1 29.98,71.50z"/>
</svg>