<?xml version="1.0" encoding="utf-8"?>
<svg
	version="1.1"
	xmlns="http://www.w3.org/2000/svg"
	xmlns:xlink="http://www.w3.org/1999/xlink"
	x="0%" y="0%"
	width="100%" height="100%"
	viewBox="0 0 192.0 192.0"
	enable-background="new 0 0 192.0 192.0"
	xml:space="preserve">
	<path
		fill="#FFFFFF"
		stroke="#000000"
		fill-opacity="0.000"
		stroke-opacity="1.000"
		fill-rule="nonzero"
		stroke-width="12"
		stroke-linejoin="miter"
		stroke-linecap="square"
		d="M45.60,21.26C56.58,21.26,65.49,30.16,65.49,41.14C65.49,52.12,56.58,61.03,45.60,61.03C34.62,61.03,25.72,52.12,25.72,41.14C25.72,30.16,34.62,21.26,45.60,21.26z"/>
	<path
		fill="#FFFFFF"
		stroke="#000000"
		fill-opacity="0.000"
		stroke-opacity="1.000"
		fill-rule="nonzero"
		stroke-width="12"
		stroke-linejoin="miter"
		stroke-linecap="square"
		d="M45.60,76.12C56.58,76.12,65.49,85.02,65.49,96.00C65.49,106.98,56.58,115.88,45.60,115.88C34.62,115.88,25.72,106.98,25.72,96.00C25.72,85.02,34.62,76.12,45.60,76.12z"/>
	<path
		fill="#FFFFFF"
		stroke="#000000"
		fill-opacity="0.000"
		stroke-opacity="1.000"
		fill-rule="nonzero"
		stroke-width="12"
		stroke-linejoin="miter"
		stroke-linecap="square"
		d="M45.60,130.97C56.58,130.97,65.49,139.88,65.49,150.86C65.49,161.84,56.58,170.74,45.60,170.74C34.62,170.74,25.72,161.84,25.72,150.86C25.72,139.88,34.62,130.97,45.60,130.97z"/>
	<path
		fill="#FFFFFF"
		stroke="#000000"
		fill-opacity="0.000"
		stroke-opacity="1.000"
		fill-rule="nonzero"
		stroke-width="12"
		stroke-linejoin="miter"
		stroke-linecap="round"
		d="M89.49,41.14L166.28,41.14"/>
	<path
		fill="#FFFFFF"
		stroke="#000000"
		fill-opacity="0.000"
		stroke-opacity="1.000"
		fill-rule="nonzero"
		stroke-width="12"
		stroke-linejoin="miter"
		stroke-linecap="round"
		d="M89.49,96.00L166.28,96.00"/>
	<path
		fill="#FFFFFF"
		stroke="#000000"
		fill-opacity="0.000"
		stroke-opacity="1.000"
		fill-rule="nonzero"
		stroke-width="12"
		stroke-linejoin="miter"
		stroke-linecap="round"
		d="M89.49,150.86L166.28,150.86"/>
</svg>