<?xml version="1.0" encoding="utf-8"?>
<svg
	version="1.1"
	xmlns="http://www.w3.org/2000/svg"
	xmlns:xlink="http://www.w3.org/1999/xlink"
	x="0%" y="0%"
	width="100%" height="100%"
	viewBox="0 0 192.0 192.0"
	enable-background="new 0 0 192.0 192.0"
	xml:space="preserve">
	<path
		fill="#FFFFFF"
		stroke="#000000"
		fill-opacity="0.000"
		stroke-opacity="1.000"
		fill-rule="nonzero"
		stroke-width="12"
		stroke-linejoin="miter"
		stroke-linecap="square"
		d="M96.00,21.81C108.84,21.81,119.24,32.22,119.24,45.05C119.24,57.89,108.84,68.30,96.00,68.30C83.16,68.30,72.76,57.89,72.76,45.05C72.76,32.22,83.16,21.81,96.00,21.81z"/>
	<path
		fill="#FFFFFF"
		stroke="#000000"
		fill-opacity="0.000"
		stroke-opacity="1.000"
		fill-rule="nonzero"
		stroke-width="12"
		stroke-linejoin="miter"
		stroke-linecap="square"
		d="M42.54,107.35C55.37,107.35,65.78,117.76,65.78,130.60C65.78,143.43,55.37,153.84,42.54,153.84C29.70,153.84,19.29,143.43,19.29,130.60C19.29,117.76,29.70,107.35,42.54,107.35z"/>
	<path
		fill="#FFFFFF"
		stroke="#000000"
		fill-opacity="0.000"
		stroke-opacity="1.000"
		fill-rule="nonzero"
		stroke-width="12"
		stroke-linejoin="miter"
		stroke-linecap="square"
		d="M149.46,107.35C162.30,107.35,172.71,117.76,172.71,130.60C172.71,143.43,162.30,153.84,149.46,153.84C136.63,153.84,126.22,143.43,126.22,130.60C126.22,117.76,136.63,107.35,149.46,107.35z"/>
	<path
		fill="#FFFFFF"
		stroke="#000000"
		fill-opacity="0.000"
		stroke-opacity="1.000"
		fill-rule="nonzero"
		stroke-width="12"
		stroke-linejoin="miter"
		stroke-linecap="square"
		d="M119.04,61.44Q134.40,69.12,141.91,91.83"/>
	<path
		fill="#FFFFFF"
		stroke="#000000"
		fill-opacity="0.000"
		stroke-opacity="1.000"
		fill-rule="nonzero"
		stroke-width="12"
		stroke-linejoin="miter"
		stroke-linecap="square"
		d="M125.29,145.47Q111.79,156.09,88.05,153.20"/>
	<path
		fill="#FFFFFF"
		stroke="#000000"
		fill-opacity="0.000"
		stroke-opacity="1.000"
		fill-rule="nonzero"
		stroke-width="12"
		stroke-linejoin="miter"
		stroke-linecap="square"
		d="M42.29,100.00Q42.73,82.83,60.11,66.40"/>
</svg>