<?xml version="1.0" encoding="utf-8"?>
<svg
	version="1.1"
	xmlns="http://www.w3.org/2000/svg"
	xmlns:xlink="http://www.w3.org/1999/xlink"
	x="0%" y="0%"
	width="100%" height="100%"
	viewBox="0 0 192.0 192.0"
	enable-background="new 0 0 192.0 192.0"
	xml:space="preserve">
	<path
		fill="#FFFFFF"
		stroke="#000000"
		fill-opacity="0.000"
		stroke-opacity="1.000"
		fill-rule="nonzero"
		stroke-width="12"
		stroke-linejoin="miter"
		stroke-linecap="square"
		d="M44.93,171.83C68.57,140.15,92.22,108.47,113.02,103.74C133.83,99.01,151.80,121.23,169.76,143.46"/>
	<path
		fill="#FFFFFF"
		stroke="#000000"
		fill-opacity="0.000"
		stroke-opacity="1.000"
		fill-rule="nonzero"
		stroke-width="12"
		stroke-linejoin="miter"
		stroke-linecap="square"
		d="M22.24,110.36C49.90,79.62,54.51,70.40,91.39,111.90"/>
	<path
		fill="#FFFFFF"
		stroke="#000000"
		fill-opacity="0.000"
		stroke-opacity="1.000"
		fill-rule="nonzero"
		stroke-width="12"
		stroke-linejoin="miter"
		stroke-linecap="square"
		d="M63.24,84.01A33.82 33.82 14.35 1 1 128.76,100.77"/>
	<path
		fill="#FFFFFF"
		stroke="#000000"
		fill-opacity="0.000"
		stroke-opacity="1.000"
		fill-rule="nonzero"
		stroke-width="12"
		stroke-linejoin="miter"
		stroke-linecap="square"
		d="M39.49,19.08L153.60,19.08A19.02 19.02 0 0 1 172.61,38.09L172.61,153.91A19.02 19.02 0 0 1 153.60,172.92L39.49,172.92A19.02 19.02 0 0 1 20.48,153.91L20.48,38.09A19.02 19.02 0 0 1 39.49,19.08z"/>
</svg>